<svg xmlns="http://www.w3.org/2000/svg" width="16" height="16" viewBox="0 0 16 16"><g fill="none" stroke-linejoin="round"><path stroke="#000" d="M5.576 5.627a3.266 3.266 0 0 1 4.451-.339h-.009h.458" stroke-width="1"/><path stroke="#000" d="m11.78 3.984l.064-.553a5.87 5.87 0 0 0-3.879-1.467A5.876 5.876 0 0 0 2.309 6.29" stroke-width="1"/><path stroke="#000" d="M13.637 6.29a5.9 5.9 0 0 0-1.771-2.855l-1.83 1.83a3.26 3.26 0 0 1 1.195 2.581v.325c.893 0 1.628.735 1.628 1.628c0 .894-.735 1.629-1.628 1.629H7.973v2.608h3.291c2.324 0 4.236-1.913 4.236-4.237a4.24 4.24 0 0 0-1.863-3.509Z" stroke-width="1"/><path stroke="#000" d="m2.268 12.709l-.114.457a4.2 4.2 0 0 0 2.557.851h3.258V11.41H4.711c-.232 0-.461-.05-.672-.147" stroke-width="1"/><path stroke="#000" d="m3.221 12.085l.822-.822a1.63 1.63 0 0 1-.958-1.484c0-.893.735-1.629 1.629-1.629a1.63 1.63 0 0 1 1.484.958l1.89-1.889a4.24 4.24 0 0 0-3.377-1.661C2.397 5.572.5 7.48.5 9.795a4.24 4.24 0 0 0 1.654 3.358l1.067-1.068" stroke-width="1"/></g></svg>